<mxfile host="app.diagrams.net" agent="Mozilla/5.0 (X11; Ubuntu; Linux x86_64; rv:129.0) Gecko/20100101 Firefox/129.0" version="24.7.8">
  <diagram name="第 1 页" id="AcDDuyrtQmX0u-esm08_">
    <mxGraphModel dx="2195" dy="790" grid="1" gridSize="10" guides="1" tooltips="1" connect="1" arrows="0" fold="1" page="1" pageScale="1" pageWidth="827" pageHeight="1169" math="0" shadow="0">
      <root>
        <mxCell id="0" />
        <mxCell id="1" parent="0" />
        <mxCell id="837eysPBzcrNltalG10M-2" value="开发人员" style="shape=umlActor;verticalLabelPosition=bottom;verticalAlign=top;html=1;outlineConnect=0;fontSize=20;labelBackgroundColor=none;fillColor=#F2CC8F;strokeColor=#E07A5F;fontColor=#393C56;" vertex="1" parent="1">
          <mxGeometry x="-170" y="280" width="30" height="60" as="geometry" />
        </mxCell>
        <mxCell id="837eysPBzcrNltalG10M-6" value="&lt;font style=&quot;font-size: 20px;&quot;&gt;提交脚本&lt;/font&gt;" style="rounded=1;whiteSpace=wrap;html=1;labelBackgroundColor=none;fillColor=#F2CC8F;strokeColor=#E07A5F;fontColor=#393C56;" vertex="1" parent="1">
          <mxGeometry x="369.69" y="300" width="120" height="60" as="geometry" />
        </mxCell>
        <mxCell id="837eysPBzcrNltalG10M-11" value="" style="endArrow=classic;html=1;rounded=0;entryX=0.5;entryY=0;entryDx=0;entryDy=0;labelBackgroundColor=none;strokeColor=#E07A5F;fontColor=default;" edge="1" parent="1" source="837eysPBzcrNltalG10M-6" target="837eysPBzcrNltalG10M-13">
          <mxGeometry width="50" height="50" relative="1" as="geometry">
            <mxPoint x="180" y="455" as="sourcePoint" />
            <mxPoint x="430" y="345" as="targetPoint" />
          </mxGeometry>
        </mxCell>
        <mxCell id="837eysPBzcrNltalG10M-13" value="自动检查" style="swimlane;whiteSpace=wrap;html=1;labelBackgroundColor=none;fillColor=#F2CC8F;strokeColor=#E07A5F;fontColor=#393C56;" vertex="1" parent="1">
          <mxGeometry x="189.38" y="425" width="480.62" height="135" as="geometry" />
        </mxCell>
        <mxCell id="837eysPBzcrNltalG10M-14" value="语法检查" style="rounded=1;whiteSpace=wrap;html=1;labelBackgroundColor=none;fillColor=#F2CC8F;strokeColor=#E07A5F;fontColor=#393C56;" vertex="1" parent="837eysPBzcrNltalG10M-13">
          <mxGeometry x="51.25" y="60" width="120" height="60" as="geometry" />
        </mxCell>
        <mxCell id="837eysPBzcrNltalG10M-15" value="敏感操作检查" style="rounded=1;whiteSpace=wrap;html=1;labelBackgroundColor=none;fillColor=#F2CC8F;strokeColor=#E07A5F;fontColor=#393C56;" vertex="1" parent="837eysPBzcrNltalG10M-13">
          <mxGeometry x="271.25" y="60" width="120" height="60" as="geometry" />
        </mxCell>
        <mxCell id="837eysPBzcrNltalG10M-33" value="" style="endArrow=classic;html=1;rounded=0;exitX=1;exitY=0.5;exitDx=0;exitDy=0;labelBackgroundColor=none;strokeColor=#E07A5F;fontColor=default;" edge="1" parent="837eysPBzcrNltalG10M-13" source="837eysPBzcrNltalG10M-14">
          <mxGeometry width="50" height="50" relative="1" as="geometry">
            <mxPoint x="210.62" y="125" as="sourcePoint" />
            <mxPoint x="270.62" y="90" as="targetPoint" />
          </mxGeometry>
        </mxCell>
        <mxCell id="837eysPBzcrNltalG10M-17" value="模拟执行" style="swimlane;whiteSpace=wrap;html=1;labelBackgroundColor=none;fillColor=#F2CC8F;strokeColor=#E07A5F;fontColor=#393C56;" vertex="1" parent="1">
          <mxGeometry x="189.38" y="640" width="481.25" height="160" as="geometry" />
        </mxCell>
        <mxCell id="837eysPBzcrNltalG10M-18" value="模拟环境创建" style="rounded=1;whiteSpace=wrap;html=1;labelBackgroundColor=none;fillColor=#F2CC8F;strokeColor=#E07A5F;fontColor=#393C56;" vertex="1" parent="837eysPBzcrNltalG10M-17">
          <mxGeometry x="320.62" y="60" width="120" height="60" as="geometry" />
        </mxCell>
        <mxCell id="837eysPBzcrNltalG10M-19" value="目标脚本执行" style="rounded=1;whiteSpace=wrap;html=1;labelBackgroundColor=none;fillColor=#F2CC8F;strokeColor=#E07A5F;fontColor=#393C56;" vertex="1" parent="837eysPBzcrNltalG10M-17">
          <mxGeometry x="170.62" y="60" width="120" height="60" as="geometry" />
        </mxCell>
        <mxCell id="837eysPBzcrNltalG10M-23" value="变化量对比" style="rounded=1;whiteSpace=wrap;html=1;labelBackgroundColor=none;fillColor=#F2CC8F;strokeColor=#E07A5F;fontColor=#393C56;" vertex="1" parent="837eysPBzcrNltalG10M-17">
          <mxGeometry x="20.620000000000005" y="60" width="120" height="60" as="geometry" />
        </mxCell>
        <mxCell id="837eysPBzcrNltalG10M-24" value="耦合性检查" style="swimlane;whiteSpace=wrap;html=1;labelBackgroundColor=none;fillColor=#F2CC8F;strokeColor=#E07A5F;fontColor=#393C56;" vertex="1" parent="1">
          <mxGeometry x="189.38" y="850" width="481.25" height="160" as="geometry" />
        </mxCell>
        <mxCell id="837eysPBzcrNltalG10M-25" value="套表检查" style="rounded=1;whiteSpace=wrap;html=1;labelBackgroundColor=none;fillColor=#F2CC8F;strokeColor=#E07A5F;fontColor=#393C56;" vertex="1" parent="837eysPBzcrNltalG10M-24">
          <mxGeometry x="20.62" y="60" width="120" height="60" as="geometry" />
        </mxCell>
        <mxCell id="837eysPBzcrNltalG10M-26" value="耦合库检查" style="rounded=1;whiteSpace=wrap;html=1;labelBackgroundColor=none;fillColor=#F2CC8F;strokeColor=#E07A5F;fontColor=#393C56;" vertex="1" parent="837eysPBzcrNltalG10M-24">
          <mxGeometry x="170.62" y="60" width="120" height="60" as="geometry" />
        </mxCell>
        <mxCell id="837eysPBzcrNltalG10M-27" value="。。。" style="rounded=1;whiteSpace=wrap;html=1;labelBackgroundColor=none;fillColor=#F2CC8F;strokeColor=#E07A5F;fontColor=#393C56;" vertex="1" parent="837eysPBzcrNltalG10M-24">
          <mxGeometry x="320.62" y="60" width="120" height="60" as="geometry" />
        </mxCell>
        <mxCell id="837eysPBzcrNltalG10M-28" value="是否通过" style="rhombus;whiteSpace=wrap;html=1;labelBackgroundColor=none;fillColor=#F2CC8F;strokeColor=#E07A5F;fontColor=#393C56;" vertex="1" parent="1">
          <mxGeometry x="50" y="690" width="80" height="80" as="geometry" />
        </mxCell>
        <mxCell id="837eysPBzcrNltalG10M-31" value="" style="endArrow=classic;html=1;rounded=0;entryX=0;entryY=0.5;entryDx=0;entryDy=0;exitX=1;exitY=0.5;exitDx=0;exitDy=0;labelBackgroundColor=none;strokeColor=#E07A5F;fontColor=default;" edge="1" parent="1" source="837eysPBzcrNltalG10M-15" target="837eysPBzcrNltalG10M-34">
          <mxGeometry width="50" height="50" relative="1" as="geometry">
            <mxPoint x="440" y="580" as="sourcePoint" />
            <mxPoint x="80" y="540" as="targetPoint" />
          </mxGeometry>
        </mxCell>
        <mxCell id="837eysPBzcrNltalG10M-32" value="通过" style="edgeLabel;html=1;align=center;verticalAlign=middle;resizable=0;points=[];labelBackgroundColor=none;fontColor=#393C56;" vertex="1" connectable="0" parent="837eysPBzcrNltalG10M-31">
          <mxGeometry x="0.1812" y="1" relative="1" as="geometry">
            <mxPoint x="105" y="126" as="offset" />
          </mxGeometry>
        </mxCell>
        <mxCell id="837eysPBzcrNltalG10M-34" value="是否通过" style="rhombus;whiteSpace=wrap;html=1;labelBackgroundColor=none;fillColor=#F2CC8F;strokeColor=#E07A5F;fontColor=#393C56;" vertex="1" parent="1">
          <mxGeometry x="740" y="475" width="80" height="80" as="geometry" />
        </mxCell>
        <mxCell id="837eysPBzcrNltalG10M-35" value="" style="endArrow=classic;html=1;rounded=0;exitX=0.5;exitY=1;exitDx=0;exitDy=0;labelBackgroundColor=none;strokeColor=#E07A5F;fontColor=default;" edge="1" parent="1" source="837eysPBzcrNltalG10M-34" target="837eysPBzcrNltalG10M-18">
          <mxGeometry width="50" height="50" relative="1" as="geometry">
            <mxPoint x="740" y="700" as="sourcePoint" />
            <mxPoint x="790" y="650" as="targetPoint" />
            <Array as="points">
              <mxPoint x="780" y="730" />
            </Array>
          </mxGeometry>
        </mxCell>
        <mxCell id="837eysPBzcrNltalG10M-36" value="" style="endArrow=classic;html=1;rounded=0;entryX=1;entryY=0.5;entryDx=0;entryDy=0;exitX=0;exitY=0.5;exitDx=0;exitDy=0;labelBackgroundColor=none;strokeColor=#E07A5F;fontColor=default;" edge="1" parent="1" source="837eysPBzcrNltalG10M-23" target="837eysPBzcrNltalG10M-28">
          <mxGeometry width="50" height="50" relative="1" as="geometry">
            <mxPoint x="60" y="890" as="sourcePoint" />
            <mxPoint x="110" y="840" as="targetPoint" />
          </mxGeometry>
        </mxCell>
        <mxCell id="837eysPBzcrNltalG10M-39" value="" style="endArrow=classic;html=1;rounded=0;entryX=0;entryY=0.5;entryDx=0;entryDy=0;exitX=0.5;exitY=1;exitDx=0;exitDy=0;labelBackgroundColor=none;strokeColor=#E07A5F;fontColor=default;" edge="1" parent="1" source="837eysPBzcrNltalG10M-28" target="837eysPBzcrNltalG10M-25">
          <mxGeometry width="50" height="50" relative="1" as="geometry">
            <mxPoint x="10" y="870" as="sourcePoint" />
            <mxPoint x="91.03999999999996" y="907.04" as="targetPoint" />
            <Array as="points">
              <mxPoint x="90" y="940" />
            </Array>
          </mxGeometry>
        </mxCell>
        <mxCell id="837eysPBzcrNltalG10M-40" value="&lt;font style=&quot;font-size: 20px;&quot;&gt;人工审核&lt;/font&gt;" style="rounded=1;whiteSpace=wrap;html=1;labelBackgroundColor=none;fillColor=#F2CC8F;strokeColor=#E07A5F;fontColor=#393C56;" vertex="1" parent="1">
          <mxGeometry x="360" y="1080" width="120" height="60" as="geometry" />
        </mxCell>
        <mxCell id="837eysPBzcrNltalG10M-42" value="是否通过" style="rhombus;whiteSpace=wrap;html=1;labelBackgroundColor=none;fillColor=#F2CC8F;strokeColor=#E07A5F;fontColor=#393C56;" vertex="1" parent="1">
          <mxGeometry x="730" y="900" width="80" height="80" as="geometry" />
        </mxCell>
        <mxCell id="837eysPBzcrNltalG10M-43" value="" style="endArrow=classic;html=1;rounded=0;entryX=0;entryY=0.5;entryDx=0;entryDy=0;exitX=1;exitY=0.5;exitDx=0;exitDy=0;labelBackgroundColor=none;strokeColor=#E07A5F;fontColor=default;" edge="1" parent="1" source="837eysPBzcrNltalG10M-27" target="837eysPBzcrNltalG10M-42">
          <mxGeometry width="50" height="50" relative="1" as="geometry">
            <mxPoint x="670" y="1120" as="sourcePoint" />
            <mxPoint x="720" y="1070" as="targetPoint" />
          </mxGeometry>
        </mxCell>
        <mxCell id="837eysPBzcrNltalG10M-44" value="" style="endArrow=classic;html=1;rounded=0;entryX=1;entryY=0.5;entryDx=0;entryDy=0;exitX=0.5;exitY=1;exitDx=0;exitDy=0;labelBackgroundColor=none;strokeColor=#E07A5F;fontColor=default;" edge="1" parent="1" source="837eysPBzcrNltalG10M-42" target="837eysPBzcrNltalG10M-40">
          <mxGeometry width="50" height="50" relative="1" as="geometry">
            <mxPoint x="670" y="1100" as="sourcePoint" />
            <mxPoint x="720" y="1050" as="targetPoint" />
            <Array as="points">
              <mxPoint x="770" y="1110" />
            </Array>
          </mxGeometry>
        </mxCell>
        <mxCell id="837eysPBzcrNltalG10M-58" value="通过" style="edgeLabel;html=1;align=center;verticalAlign=middle;resizable=0;points=[];labelBackgroundColor=none;fontColor=#393C56;" vertex="1" connectable="0" parent="837eysPBzcrNltalG10M-44">
          <mxGeometry x="-0.6524" relative="1" as="geometry">
            <mxPoint as="offset" />
          </mxGeometry>
        </mxCell>
        <mxCell id="837eysPBzcrNltalG10M-45" value="&lt;font style=&quot;font-size: 20px;&quot;&gt;开发组长&lt;/font&gt;" style="shape=umlActor;verticalLabelPosition=bottom;verticalAlign=top;html=1;outlineConnect=0;labelBackgroundColor=none;fillColor=#F2CC8F;strokeColor=#E07A5F;fontColor=#393C56;" vertex="1" parent="1">
          <mxGeometry x="-180.31" y="1080" width="30" height="60" as="geometry" />
        </mxCell>
        <mxCell id="837eysPBzcrNltalG10M-47" value="&lt;font style=&quot;font-size: 20px;&quot;&gt;审核业务属性&lt;/font&gt;" style="text;html=1;align=center;verticalAlign=middle;resizable=0;points=[];autosize=1;strokeColor=none;fillColor=none;labelBackgroundColor=none;fontColor=#393C56;" vertex="1" parent="1">
          <mxGeometry x="-130.31" y="1090" width="140" height="40" as="geometry" />
        </mxCell>
        <mxCell id="837eysPBzcrNltalG10M-48" value="是否通过" style="rhombus;whiteSpace=wrap;html=1;labelBackgroundColor=none;fillColor=#F2CC8F;strokeColor=#E07A5F;fontColor=#393C56;" vertex="1" parent="1">
          <mxGeometry x="380" y="1200" width="80" height="80" as="geometry" />
        </mxCell>
        <mxCell id="837eysPBzcrNltalG10M-49" value="&lt;font style=&quot;font-size: 20px;&quot;&gt;测试执行&lt;br&gt;&lt;/font&gt;" style="rounded=1;whiteSpace=wrap;html=1;labelBackgroundColor=none;fillColor=#F2CC8F;strokeColor=#E07A5F;fontColor=#393C56;" vertex="1" parent="1">
          <mxGeometry x="360" y="1340" width="120" height="60" as="geometry" />
        </mxCell>
        <mxCell id="837eysPBzcrNltalG10M-50" value="" style="endArrow=classic;html=1;rounded=0;entryX=0.5;entryY=0;entryDx=0;entryDy=0;labelBackgroundColor=none;strokeColor=#E07A5F;fontColor=default;" edge="1" parent="1" source="837eysPBzcrNltalG10M-40" target="837eysPBzcrNltalG10M-48">
          <mxGeometry width="50" height="50" relative="1" as="geometry">
            <mxPoint x="340" y="1220" as="sourcePoint" />
            <mxPoint x="390" y="1170" as="targetPoint" />
          </mxGeometry>
        </mxCell>
        <mxCell id="837eysPBzcrNltalG10M-51" value="" style="endArrow=classic;html=1;rounded=0;entryX=0.5;entryY=0;entryDx=0;entryDy=0;labelBackgroundColor=none;strokeColor=#E07A5F;fontColor=default;" edge="1" parent="1" source="837eysPBzcrNltalG10M-48" target="837eysPBzcrNltalG10M-49">
          <mxGeometry width="50" height="50" relative="1" as="geometry">
            <mxPoint x="270" y="1350" as="sourcePoint" />
            <mxPoint x="320" y="1300" as="targetPoint" />
          </mxGeometry>
        </mxCell>
        <mxCell id="837eysPBzcrNltalG10M-57" value="通过" style="edgeLabel;html=1;align=center;verticalAlign=middle;resizable=0;points=[];labelBackgroundColor=none;fontColor=#393C56;" vertex="1" connectable="0" parent="837eysPBzcrNltalG10M-51">
          <mxGeometry relative="1" as="geometry">
            <mxPoint as="offset" />
          </mxGeometry>
        </mxCell>
        <mxCell id="837eysPBzcrNltalG10M-53" value="&lt;font style=&quot;font-size: 20px;&quot;&gt;待&lt;font style=&quot;font-size: 20px;&quot;&gt;生产发布&lt;br&gt;&lt;/font&gt;&lt;/font&gt;" style="rounded=1;whiteSpace=wrap;html=1;labelBackgroundColor=none;fillColor=#F2CC8F;strokeColor=#E07A5F;fontColor=#393C56;" vertex="1" parent="1">
          <mxGeometry x="354" y="1450" width="120" height="60" as="geometry" />
        </mxCell>
        <mxCell id="837eysPBzcrNltalG10M-54" value="&lt;font style=&quot;font-size: 20px;&quot;&gt;提交脚本申请&lt;br&gt;&lt;/font&gt;" style="text;html=1;align=center;verticalAlign=middle;resizable=0;points=[];autosize=1;strokeColor=none;fillColor=none;labelBackgroundColor=none;fontColor=#393C56;" vertex="1" parent="1">
          <mxGeometry x="-130.31" y="290" width="140" height="40" as="geometry" />
        </mxCell>
        <mxCell id="837eysPBzcrNltalG10M-55" value="" style="endArrow=classic;html=1;rounded=0;exitX=0;exitY=0.5;exitDx=0;exitDy=0;entryX=0;entryY=0.25;entryDx=0;entryDy=0;labelBackgroundColor=none;strokeColor=#E07A5F;fontColor=default;" edge="1" parent="1" source="837eysPBzcrNltalG10M-28" target="837eysPBzcrNltalG10M-6">
          <mxGeometry width="50" height="50" relative="1" as="geometry">
            <mxPoint y="730" as="sourcePoint" />
            <mxPoint x="50" y="680" as="targetPoint" />
            <Array as="points">
              <mxPoint x="50" y="315" />
            </Array>
          </mxGeometry>
        </mxCell>
        <mxCell id="837eysPBzcrNltalG10M-56" value="不通过" style="edgeLabel;html=1;align=center;verticalAlign=middle;resizable=0;points=[];labelBackgroundColor=none;fontColor=#393C56;" vertex="1" connectable="0" parent="837eysPBzcrNltalG10M-55">
          <mxGeometry x="-0.4066" y="-3" relative="1" as="geometry">
            <mxPoint as="offset" />
          </mxGeometry>
        </mxCell>
        <mxCell id="837eysPBzcrNltalG10M-59" value="" style="endArrow=classic;html=1;rounded=0;exitX=0;exitY=0.5;exitDx=0;exitDy=0;entryX=0;entryY=0.5;entryDx=0;entryDy=0;labelBackgroundColor=none;strokeColor=#E07A5F;fontColor=default;" edge="1" parent="1" source="837eysPBzcrNltalG10M-48" target="837eysPBzcrNltalG10M-6">
          <mxGeometry width="50" height="50" relative="1" as="geometry">
            <mxPoint x="200" y="1250" as="sourcePoint" />
            <mxPoint x="250" y="1200" as="targetPoint" />
            <Array as="points">
              <mxPoint x="40" y="1240" />
              <mxPoint x="40" y="820" />
              <mxPoint x="40" y="330" />
            </Array>
          </mxGeometry>
        </mxCell>
        <mxCell id="837eysPBzcrNltalG10M-60" value="不通过" style="edgeLabel;html=1;align=center;verticalAlign=middle;resizable=0;points=[];labelBackgroundColor=none;fontColor=#393C56;" vertex="1" connectable="0" parent="837eysPBzcrNltalG10M-59">
          <mxGeometry x="-0.8329" y="-2" relative="1" as="geometry">
            <mxPoint as="offset" />
          </mxGeometry>
        </mxCell>
        <mxCell id="837eysPBzcrNltalG10M-61" value="" style="endArrow=classic;html=1;rounded=0;entryX=0.558;entryY=0.017;entryDx=0;entryDy=0;entryPerimeter=0;exitX=0.5;exitY=1;exitDx=0;exitDy=0;labelBackgroundColor=none;strokeColor=#E07A5F;fontColor=default;" edge="1" parent="1" source="837eysPBzcrNltalG10M-49" target="837eysPBzcrNltalG10M-53">
          <mxGeometry width="50" height="50" relative="1" as="geometry">
            <mxPoint x="220" y="1470" as="sourcePoint" />
            <mxPoint x="270" y="1420" as="targetPoint" />
          </mxGeometry>
        </mxCell>
        <mxCell id="837eysPBzcrNltalG10M-62" value="通过" style="edgeLabel;html=1;align=center;verticalAlign=middle;resizable=0;points=[];labelBackgroundColor=none;fontColor=#393C56;" vertex="1" connectable="0" parent="837eysPBzcrNltalG10M-61">
          <mxGeometry x="-0.2547" y="1" relative="1" as="geometry">
            <mxPoint as="offset" />
          </mxGeometry>
        </mxCell>
      </root>
    </mxGraphModel>
  </diagram>
</mxfile>
